<mxfile>
    <diagram id="z_NMQHe38uA2jIdH7vP6" name="Page-1">
        <mxGraphModel dx="764" dy="519" grid="1" gridSize="10" guides="1" tooltips="1" connect="1" arrows="1" fold="1" page="1" pageScale="1" pageWidth="850" pageHeight="1100" math="0" shadow="0">
            <root>
                <mxCell id="0"/>
                <mxCell id="1" parent="0"/>
                <mxCell id="2" value="" style="strokeWidth=1;shadow=0;dashed=0;align=center;html=1;shape=mxgraph.mockup.containers.browserWindow;rSize=0;strokeColor=#666666;strokeColor2=#008cff;strokeColor3=#c4c4c4;mainText=,;recursiveResize=0;sketch=0;" parent="1" vertex="1">
                    <mxGeometry x="25" y="40" width="800" height="600" as="geometry"/>
                </mxCell>
                <mxCell id="3" value="DividendMaster" style="strokeWidth=1;shadow=0;dashed=0;align=center;html=1;shape=mxgraph.mockup.containers.anchor;fontSize=17;fontColor=#666666;align=left;" parent="2" vertex="1">
                    <mxGeometry x="60" y="12" width="130" height="26" as="geometry"/>
                </mxCell>
                <mxCell id="4" value="https://divendmaster" style="strokeWidth=1;shadow=0;dashed=0;align=center;html=1;shape=mxgraph.mockup.containers.anchor;rSize=0;fontSize=17;fontColor=#666666;align=left;" parent="2" vertex="1">
                    <mxGeometry x="130" y="60" width="250" height="26" as="geometry"/>
                </mxCell>
                <mxCell id="5" value="" style="rounded=0;whiteSpace=wrap;html=1;" parent="2" vertex="1">
                    <mxGeometry x="10" y="160" width="120" height="430" as="geometry"/>
                </mxCell>
                <mxCell id="6" value="" style="rounded=0;whiteSpace=wrap;html=1;" parent="2" vertex="1">
                    <mxGeometry x="10" y="120" width="780" height="30" as="geometry"/>
                </mxCell>
                <mxCell id="7" value="" style="rounded=0;whiteSpace=wrap;html=1;" parent="2" vertex="1">
                    <mxGeometry x="140" y="160" width="650" height="430" as="geometry"/>
                </mxCell>
                <mxCell id="8" value="" style="rounded=0;whiteSpace=wrap;html=1;" parent="2" vertex="1">
                    <mxGeometry x="150" y="190" width="200" height="60" as="geometry"/>
                </mxCell>
                <mxCell id="9" value="" style="rounded=0;whiteSpace=wrap;html=1;" parent="2" vertex="1">
                    <mxGeometry x="365" y="190" width="200" height="60" as="geometry"/>
                </mxCell>
                <mxCell id="10" value="" style="rounded=0;whiteSpace=wrap;html=1;" parent="2" vertex="1">
                    <mxGeometry x="580" y="190" width="200" height="60" as="geometry"/>
                </mxCell>
                <mxCell id="11" value="Dashboard" style="text;html=1;strokeColor=none;fillColor=none;align=left;verticalAlign=middle;whiteSpace=wrap;rounded=0;" parent="2" vertex="1">
                    <mxGeometry x="150" y="164" width="90" height="20" as="geometry"/>
                </mxCell>
                <mxCell id="12" value="News" style="text;html=1;strokeColor=none;fillColor=none;align=left;verticalAlign=middle;whiteSpace=wrap;rounded=0;" parent="2" vertex="1">
                    <mxGeometry x="150" y="256" width="90" height="20" as="geometry"/>
                </mxCell>
                <mxCell id="13" value="" style="rounded=0;whiteSpace=wrap;html=1;align=left;dashed=1;dashPattern=1 1;" parent="2" vertex="1">
                    <mxGeometry x="150" y="278" width="630" height="60" as="geometry"/>
                </mxCell>
                <mxCell id="14" value="Portfolios" style="text;html=1;strokeColor=none;fillColor=none;align=left;verticalAlign=middle;whiteSpace=wrap;rounded=0;" vertex="1" parent="2">
                    <mxGeometry x="150" y="350" width="90" height="20" as="geometry"/>
                </mxCell>
                <mxCell id="15" value="" style="rounded=0;whiteSpace=wrap;html=1;align=left;dashed=1;dashPattern=1 1;" vertex="1" parent="2">
                    <mxGeometry x="150" y="372" width="630" height="60" as="geometry"/>
                </mxCell>
                <mxCell id="16" value="Stonks" style="text;html=1;strokeColor=none;fillColor=none;align=left;verticalAlign=middle;whiteSpace=wrap;rounded=0;" vertex="1" parent="2">
                    <mxGeometry x="150" y="450" width="90" height="20" as="geometry"/>
                </mxCell>
                <mxCell id="17" value="" style="rounded=0;whiteSpace=wrap;html=1;align=left;dashed=1;dashPattern=1 1;" vertex="1" parent="2">
                    <mxGeometry x="150" y="472" width="630" height="60" as="geometry"/>
                </mxCell>
                <mxCell id="18" value="Logo" style="text;html=1;strokeColor=none;fillColor=none;align=right;verticalAlign=middle;whiteSpace=wrap;rounded=0;" vertex="1" parent="2">
                    <mxGeometry x="740" y="125" width="40" height="20" as="geometry"/>
                </mxCell>
                <mxCell id="19" value="Welcome ___&amp;nbsp;&amp;nbsp;" style="rounded=0;whiteSpace=wrap;html=1;align=center;" vertex="1" parent="2">
                    <mxGeometry x="10" y="160" width="120" height="60" as="geometry"/>
                </mxCell>
                <mxCell id="20" value="Overview" style="rounded=0;whiteSpace=wrap;html=1;align=center;" vertex="1" parent="2">
                    <mxGeometry x="10" y="220" width="120" height="30" as="geometry"/>
                </mxCell>
                <mxCell id="21" value="Portfolios" style="rounded=0;whiteSpace=wrap;html=1;align=center;" vertex="1" parent="2">
                    <mxGeometry x="10" y="250" width="120" height="30" as="geometry"/>
                </mxCell>
                <mxCell id="22" value="Stonks" style="rounded=0;whiteSpace=wrap;html=1;align=center;" vertex="1" parent="2">
                    <mxGeometry x="10" y="280" width="120" height="30" as="geometry"/>
                </mxCell>
                <mxCell id="23" value="Logout" style="rounded=0;whiteSpace=wrap;html=1;align=center;" vertex="1" parent="2">
                    <mxGeometry x="10" y="310" width="120" height="30" as="geometry"/>
                </mxCell>
            </root>
        </mxGraphModel>
    </diagram>
</mxfile>